#!OML:ASF F:\VICON\USERDATA\INSTALL\rory3\rory3.ASF
:FULLY-SPECIFIED
:DEGREES
75
root 0.37564015773283216 17.32939611807239 35.395386031601625 1.449253280401773 3.3711885043632996 0.954076593461149
lfemur -13.105890902647655 -1.2317872910673562 -23.974753279004638
ltibia 41.98344515825992
lfoot 3.407073138172724 -9.065381020601007
ltoes -9.259260886099897
rfemur -15.83691650814866 1.7922369081392007 25.664323358665676
rtibia 64.56079584612523
rfoot 4.372915379683985 -8.071518652228109
rtoes -4.091526308342438
lowerback 13.620860420277793 0.5581197734655516 -0.19527351906298418
upperback -0.45322175462434444 2.212457047360559 0.8316235739017497
thorax -8.143855402672644 1.0941586636114042 0.09986583148860638
lowerneck -19.18387855601287 -4.123627717186215 -2.400202804592421
upperneck 13.969801851432027 -5.220457416503175 3.282880896246895
head 7.461857973418993 -2.270864776840046 0.864596915927143
lclavicle 3.0724525846122443e-16 -4.306739325979878e-16
lhumerus -41.29415078453279 -15.028244732101388 97.6881072681458
lradius 107.14469754325049
lwrist 31.92935413374138
lhand -25.809556817018915 2.986661730596247
lfingers 7.125020000000001
lthumb 0.6898795902511924 33.209623854517005
rclavicle 3.072379149893675e-16 -4.306781243394096e-16
rhumerus -44.84535537310783 9.023543448774008 -97.13573510215056
rradius 103.27269330304702
rwrist -19.363982681140325
rhand -18.438784468589674 37.469885518969676
rfingers 7.125020000000001
rthumb 7.7685635577864325 7.371788066090874
76
root 0.3893561194502799 17.346112983196612 35.786704954322246 1.6480741829084193 3.18702778051771 1.0104414336950487
lfemur -14.766254856047636 -1.732548700390531 -24.97797170888029
ltibia 40.05540836313163
lfoot 4.1277859278656255 -9.902782991173197
ltoes -9.982606939244913
rfemur -16.96087518017986 1.839194136064037 25.626379781588977
rtibia 63.99054895950749
rfoot 3.7985432820545895 -7.328578011028669
rtoes -4.468837783228238
lowerback 13.749133984898469 0.39827268465331966 -0.5709545043526412
upperback -0.35996330042532565 1.951589522285697 0.682211129240641
thorax -8.254371650425417 0.9933720197275766 0.3624871214576797
lowerneck -19.19405523335418 -4.013542803504014 -2.4349704635461293
upperneck 13.994860285385263 -5.11275322985371 3.1646479206483065
head 7.474766619373769 -2.2424073256602397 0.8521517180671979
lclavicle 3.0724525846122443e-16 -4.306739325979878e-16
lhumerus -41.71255936358694 -15.632737040974748 97.50306420150277
lradius 107.54085670848279
lwrist 31.857308591247946
lhand -25.73317016761675 2.988567892168827
lfingers 7.125020000000001
lthumb 0.7594123407449481 33.274391792576914
rclavicle 3.072379149893675e-16 -4.306781243394096e-16
rhumerus -45.947169045766614 8.691156502437245 -97.25469872232681
rradius 103.35715768929927
rwrist -19.380438985511024
rhand -18.415204665094073 37.506864921960094
rfingers 7.125020000000001
rthumb 7.807276213344464 7.389144572861948
77
root 0.39281212202279847 17.351870840874927 34.74638411033265 1.7187563553118361 2.7159672815233797 0.8378644949321419
lfemur -11.212937874451518 -1.2809737031814445 -24.053748620776485
ltibia 37.90783982103438
lfoot 4.397270278442406 -10.812953524411256
ltoes -10.39578887789366
rfemur -19.559145134098152 1.5790115957521738 25.247515522053845
rtibia 62.393656060171494
rfoot 3.173771104906508 -6.516901326520081
rtoes -5.089051528130097
lowerback 13.798257055622107 0.21955544494246693 -0.8054285565743744
upperback -0.3423304000026377 1.5178572296370274 0.45683677815021406
thorax -8.331747208658843 0.8274127553124715 0.4545957739403744
lowerneck -19.121332774652835 -3.884328758024361 -2.4516365858329037
upperneck 14.065323361706838 -5.023000000547633 3.048794856298544
head 7.4890039411570415 -2.22814089538095 0.8349156263128863
lclavicle 3.0724525846122443e-16 -4.306739325979878e-16
lhumerus -40.39909811278869 -15.597628026462028 97.6492674958665
lradius 108.10921054162847
lwrist 31.8714060659401
lhand -25.70391767070545 2.977173080723309
lfingers 7.125020000000001
lthumb 0.8316029275358859 33.293264498941895
rclavicle 3.072379149893675e-16 -4.306781243394096e-16
rhumerus -47.31203147523942 8.286905436197685 -97.35796674341248
rradius 103.4076829562041
rwrist -19.372372672185424
rhand -18.4453649247307 37.461440088237126
rfingers 7.125020000000001
rthumb 7.82414516752641 7.399947240542387
78
root 0.4104956388236042 17.41092709101224 34.99738618142745 1.918094314181045 2.351570610373628 0.7613786991203553
lfemur -9.00152676113573 -1.1960195959556663 -24.021371477740676
ltibia 35.92489659097174
lfoot 4.400226432449678 -11.182691957498772
ltoes -10.630856329907116
rfemur -23.601614366169144 1.079083762956042 24.60021645727756
rtibia 60.38505326657493
rfoot 2.0141786684887415 -6.03261423075637
rtoes -5.2885529413728705
lowerback 13.758599742847094 0.0072735918281540135 -0.9547980470478092
upperback -0.3331982589359393 1.1504060713613087 0.3092743776927105
thorax -8.329263779896674 0.717613757812685 0.6699368384385018
lowerneck -19.018793154959237 -3.7717405336183556 -2.465368278180779
upperneck 14.112892305781449 -4.962268735501336 2.922378885142894
head 7.517648044723601 -2.199695378481675 0.8284647334883577
lclavicle 3.0724525846122443e-16 -4.306739325979878e-16
lhumerus -40.0610686765031 -15.846549746658662 97.52318672966025
lradius 108.86753493916038
lwrist 31.90061510884675
lhand -25.648964589939002 2.9392712502555396
lfingers 7.125020000000001
lthumb 0.8892066158439164 33.206544948389
rclavicle 3.072379149893675e-16 -4.306781243394096e-16
rhumerus -48.568482771234265 7.954888615772114 -97.38050945345066
rradius 103.40164035158435
rwrist -19.40096910616388
rhand -18.40393118709057 37.506233816658366
rfingers 7.125020000000001
rthumb 7.83893604513797 7.324431824271686
